<?xml version="1.0" encoding="UTF-8" standalone="no"?>
<!DOCTYPE svg PUBLIC "-//W3C//DTD SVG 1.1//EN"
 "http://www.w3.org/Graphics/SVG/1.1/DTD/svg11.dtd">
<!-- Generated by graphviz version 2.50.0 (0)
 -->
<!-- Title: snakemake_dag Pages: 1 -->
<svg width="535pt" height="260pt"
 viewBox="0.00 0.00 535.00 260.00" xmlns="http://www.w3.org/2000/svg" xmlns:xlink="http://www.w3.org/1999/xlink">
<g id="graph0" class="graph" transform="scale(1 1) rotate(0) translate(4 256)">
<title>snakemake_dag</title>
<polygon fill="white" stroke="transparent" points="-4,4 -4,-256 531,-256 531,4 -4,4"/>
<!-- 0 -->
<g id="node1" class="node">
<title>0</title>
<path fill="none" stroke="#d85656" stroke-width="2" d="M278.5,-36C278.5,-36 248.5,-36 248.5,-36 242.5,-36 236.5,-30 236.5,-24 236.5,-24 236.5,-12 236.5,-12 236.5,-6 242.5,0 248.5,0 248.5,0 278.5,0 278.5,0 284.5,0 290.5,-6 290.5,-12 290.5,-12 290.5,-24 290.5,-24 290.5,-30 284.5,-36 278.5,-36"/>
<text text-anchor="middle" x="263.5" y="-15.5" font-family="sans" font-size="10.00">all</text>
</g>
<!-- 1 -->
<g id="node2" class="node">
<title>1</title>
<path fill="none" stroke="#d6d856" stroke-width="2" d="M281.5,-108C281.5,-108 245.5,-108 245.5,-108 239.5,-108 233.5,-102 233.5,-96 233.5,-96 233.5,-84 233.5,-84 233.5,-78 239.5,-72 245.5,-72 245.5,-72 281.5,-72 281.5,-72 287.5,-72 293.5,-78 293.5,-84 293.5,-84 293.5,-96 293.5,-96 293.5,-102 287.5,-108 281.5,-108"/>
<text text-anchor="middle" x="263.5" y="-87.5" font-family="sans" font-size="10.00">get_report</text>
</g>
<!-- 1&#45;&gt;0 -->
<g id="edge1" class="edge">
<title>1&#45;&gt;0</title>
<path fill="none" stroke="grey" stroke-width="2" d="M263.5,-71.7C263.5,-63.98 263.5,-54.71 263.5,-46.11"/>
<polygon fill="grey" stroke="grey" stroke-width="2" points="267,-46.1 263.5,-36.1 260,-46.1 267,-46.1"/>
</g>
<!-- 2 -->
<g id="node3" class="node">
<title>2</title>
<path fill="none" stroke="#56d8d8" stroke-width="2" d="M79,-180C79,-180 12,-180 12,-180 6,-180 0,-174 0,-168 0,-168 0,-156 0,-156 0,-150 6,-144 12,-144 12,-144 79,-144 79,-144 85,-144 91,-150 91,-156 91,-156 91,-168 91,-168 91,-174 85,-180 79,-180"/>
<text text-anchor="middle" x="45.5" y="-165" font-family="sans" font-size="10.00">ancova_stats</text>
<text text-anchor="middle" x="45.5" y="-154" font-family="sans" font-size="10.00">sample: sample1</text>
</g>
<!-- 2&#45;&gt;1 -->
<g id="edge2" class="edge">
<title>2&#45;&gt;1</title>
<path fill="none" stroke="grey" stroke-width="2" d="M91.2,-146.33C130.4,-133.74 186.31,-115.79 223.7,-103.78"/>
<polygon fill="grey" stroke="grey" stroke-width="2" points="224.8,-107.1 233.25,-100.71 222.66,-100.44 224.8,-107.1"/>
</g>
<!-- 3 -->
<g id="node4" class="node">
<title>3</title>
<path fill="none" stroke="#59d856" stroke-width="2" d="M301,-252C301,-252 226,-252 226,-252 220,-252 214,-246 214,-240 214,-240 214,-228 214,-228 214,-222 220,-216 226,-216 226,-216 301,-216 301,-216 307,-216 313,-222 313,-228 313,-228 313,-240 313,-240 313,-246 307,-252 301,-252"/>
<text text-anchor="middle" x="263.5" y="-231.5" font-family="sans" font-size="10.00">fake_data_creation</text>
</g>
<!-- 3&#45;&gt;2 -->
<g id="edge7" class="edge">
<title>3&#45;&gt;2</title>
<path fill="none" stroke="grey" stroke-width="2" d="M213.76,-217.03C180.1,-206.22 135.62,-191.94 100.84,-180.77"/>
<polygon fill="grey" stroke="grey" stroke-width="2" points="101.9,-177.43 91.31,-177.71 99.76,-184.1 101.9,-177.43"/>
</g>
<!-- 4 -->
<g id="node5" class="node">
<title>4</title>
<path fill="none" stroke="#56d8d8" stroke-width="2" d="M188,-180C188,-180 121,-180 121,-180 115,-180 109,-174 109,-168 109,-168 109,-156 109,-156 109,-150 115,-144 121,-144 121,-144 188,-144 188,-144 194,-144 200,-150 200,-156 200,-156 200,-168 200,-168 200,-174 194,-180 188,-180"/>
<text text-anchor="middle" x="154.5" y="-165" font-family="sans" font-size="10.00">ancova_stats</text>
<text text-anchor="middle" x="154.5" y="-154" font-family="sans" font-size="10.00">sample: sample2</text>
</g>
<!-- 3&#45;&gt;4 -->
<g id="edge8" class="edge">
<title>3&#45;&gt;4</title>
<path fill="none" stroke="grey" stroke-width="2" d="M236.84,-215.88C222.72,-206.81 205.19,-195.55 189.94,-185.76"/>
<polygon fill="grey" stroke="grey" stroke-width="2" points="191.57,-182.65 181.27,-180.19 187.79,-188.54 191.57,-182.65"/>
</g>
<!-- 5 -->
<g id="node6" class="node">
<title>5</title>
<path fill="none" stroke="#56d8d8" stroke-width="2" d="M297,-180C297,-180 230,-180 230,-180 224,-180 218,-174 218,-168 218,-168 218,-156 218,-156 218,-150 224,-144 230,-144 230,-144 297,-144 297,-144 303,-144 309,-150 309,-156 309,-156 309,-168 309,-168 309,-174 303,-180 297,-180"/>
<text text-anchor="middle" x="263.5" y="-165" font-family="sans" font-size="10.00">ancova_stats</text>
<text text-anchor="middle" x="263.5" y="-154" font-family="sans" font-size="10.00">sample: sample3</text>
</g>
<!-- 3&#45;&gt;5 -->
<g id="edge9" class="edge">
<title>3&#45;&gt;5</title>
<path fill="none" stroke="grey" stroke-width="2" d="M263.5,-215.7C263.5,-207.98 263.5,-198.71 263.5,-190.11"/>
<polygon fill="grey" stroke="grey" stroke-width="2" points="267,-190.1 263.5,-180.1 260,-190.1 267,-190.1"/>
</g>
<!-- 6 -->
<g id="node7" class="node">
<title>6</title>
<path fill="none" stroke="#56d8d8" stroke-width="2" d="M406,-180C406,-180 339,-180 339,-180 333,-180 327,-174 327,-168 327,-168 327,-156 327,-156 327,-150 333,-144 339,-144 339,-144 406,-144 406,-144 412,-144 418,-150 418,-156 418,-156 418,-168 418,-168 418,-174 412,-180 406,-180"/>
<text text-anchor="middle" x="372.5" y="-165" font-family="sans" font-size="10.00">ancova_stats</text>
<text text-anchor="middle" x="372.5" y="-154" font-family="sans" font-size="10.00">sample: sample4</text>
</g>
<!-- 3&#45;&gt;6 -->
<g id="edge10" class="edge">
<title>3&#45;&gt;6</title>
<path fill="none" stroke="grey" stroke-width="2" d="M290.16,-215.88C304.28,-206.81 321.81,-195.55 337.06,-185.76"/>
<polygon fill="grey" stroke="grey" stroke-width="2" points="339.21,-188.54 345.73,-180.19 335.43,-182.65 339.21,-188.54"/>
</g>
<!-- 7 -->
<g id="node8" class="node">
<title>7</title>
<path fill="none" stroke="#56d8d8" stroke-width="2" d="M515,-180C515,-180 448,-180 448,-180 442,-180 436,-174 436,-168 436,-168 436,-156 436,-156 436,-150 442,-144 448,-144 448,-144 515,-144 515,-144 521,-144 527,-150 527,-156 527,-156 527,-168 527,-168 527,-174 521,-180 515,-180"/>
<text text-anchor="middle" x="481.5" y="-165" font-family="sans" font-size="10.00">ancova_stats</text>
<text text-anchor="middle" x="481.5" y="-154" font-family="sans" font-size="10.00">sample: sample5</text>
</g>
<!-- 3&#45;&gt;7 -->
<g id="edge11" class="edge">
<title>3&#45;&gt;7</title>
<path fill="none" stroke="grey" stroke-width="2" d="M313.24,-217.03C346.9,-206.22 391.38,-191.94 426.16,-180.77"/>
<polygon fill="grey" stroke="grey" stroke-width="2" points="427.24,-184.1 435.69,-177.71 425.1,-177.43 427.24,-184.1"/>
</g>
<!-- 4&#45;&gt;1 -->
<g id="edge3" class="edge">
<title>4&#45;&gt;1</title>
<path fill="none" stroke="grey" stroke-width="2" d="M181.16,-143.88C195.28,-134.81 212.81,-123.55 228.06,-113.76"/>
<polygon fill="grey" stroke="grey" stroke-width="2" points="230.21,-116.54 236.73,-108.19 226.43,-110.65 230.21,-116.54"/>
</g>
<!-- 5&#45;&gt;1 -->
<g id="edge4" class="edge">
<title>5&#45;&gt;1</title>
<path fill="none" stroke="grey" stroke-width="2" d="M263.5,-143.7C263.5,-135.98 263.5,-126.71 263.5,-118.11"/>
<polygon fill="grey" stroke="grey" stroke-width="2" points="267,-118.1 263.5,-108.1 260,-118.1 267,-118.1"/>
</g>
<!-- 6&#45;&gt;1 -->
<g id="edge5" class="edge">
<title>6&#45;&gt;1</title>
<path fill="none" stroke="grey" stroke-width="2" d="M345.84,-143.88C331.72,-134.81 314.19,-123.55 298.94,-113.76"/>
<polygon fill="grey" stroke="grey" stroke-width="2" points="300.57,-110.65 290.27,-108.19 296.79,-116.54 300.57,-110.65"/>
</g>
<!-- 7&#45;&gt;1 -->
<g id="edge6" class="edge">
<title>7&#45;&gt;1</title>
<path fill="none" stroke="grey" stroke-width="2" d="M435.8,-146.33C396.6,-133.74 340.69,-115.79 303.3,-103.78"/>
<polygon fill="grey" stroke="grey" stroke-width="2" points="304.34,-100.44 293.75,-100.71 302.2,-107.1 304.34,-100.44"/>
</g>
</g>
</svg>
